HIERARCHY
ROOT Hips
{
  OFFSET 263.056 91.6644 -274.608
  CHANNELS 6 Xposition Yposition Zposition Zrotation Xrotation Yrotation
  JOINT LeftUpLeg
  {
    OFFSET 8.64259 1.95398 -2.38835
    CHANNELS 3 Zrotation Xrotation Yrotation
    JOINT LeftLeg
    {
      OFFSET 43.7702 0 0
      CHANNELS 3 Zrotation Xrotation Yrotation
      JOINT LeftFoot
      {
        OFFSET 40.6238 0 0
        CHANNELS 3 Zrotation Xrotation Yrotation
        JOINT LeftToeBase
        {
          OFFSET 12.7242 0 0
          CHANNELS 3 Zrotation Xrotation Yrotation
          End Site
          {
            OFFSET 0 0 0
          }
        }
      }
    }
  }
  JOINT RightUpLeg
  {
    OFFSET -8.2249 1.95398 -2.59336
    CHANNELS 3 Zrotation Xrotation Yrotation
    JOINT RightLeg
    {
      OFFSET 43.5653 0 0
      CHANNELS 3 Zrotation Xrotation Yrotation
      JOINT RightFoot
      {
        OFFSET 40.6238 0 0
        CHANNELS 3 Zrotation Xrotation Yrotation
        JOINT RightToeBase
        {
          OFFSET 12.7242 0 0
          CHANNELS 3 Zrotation Xrotation Yrotation
          End Site
          {
            OFFSET 0 0 0
          }
        }
      }
    }
  }
  JOINT Spine
  {
    OFFSET 0.165834 0.87714 6.61349
    CHANNELS 3 Zrotation Xrotation Yrotation
    JOINT Spine1
    {
      OFFSET 7.38963 1.71661e-005 0
      CHANNELS 3 Zrotation Xrotation Yrotation
      JOINT Spine2
      {
        OFFSET 11.9445 1.14441e-005 0
        CHANNELS 3 Zrotation Xrotation Yrotation
        JOINT Spine3
        {
          OFFSET 14.7254 4.19617e-005 0
          CHANNELS 3 Zrotation Xrotation Yrotation
          JOINT Spine4
          {
            OFFSET 10.9679 0 0
            CHANNELS 3 Zrotation Xrotation Yrotation
            JOINT RightShoulder
            {
              OFFSET 2.46616 -1.6653 3.69651
              CHANNELS 3 Zrotation Xrotation Yrotation
              JOINT RightArm
              {
                OFFSET 13.0012 0 0
                CHANNELS 3 Zrotation Xrotation Yrotation
                JOINT RightForeArm
                {
                  OFFSET 28.7848 1.52588e-005 0
                  CHANNELS 3 Zrotation Xrotation Yrotation
                  JOINT RightHand
                  {
                    OFFSET 26.5688 1.52588e-005 0
                    CHANNELS 3 Zrotation Xrotation Yrotation
                    End Site
                    {
                      OFFSET 0 0 0
                    }
                  }
                }
              }
            }
            JOINT LeftShoulder
            {
              OFFSET 2.38034 -1.29275 -3.7523
              CHANNELS 3 Zrotation Xrotation Yrotation
              JOINT LeftArm
              {
                OFFSET 16.3182 6.10352e-005 0
                CHANNELS 3 Zrotation Xrotation Yrotation
                JOINT LeftForeArm
                {
                  OFFSET 27.0901 0 0
                  CHANNELS 3 Zrotation Xrotation Yrotation
                  JOINT LeftHand
                  {
                    OFFSET 24.5451 1.52588e-005 0
                    CHANNELS 3 Zrotation Xrotation Yrotation
                    End Site
                    {
                      OFFSET 0 0 0
                    }
                  }
                }
              }
            }
            JOINT Neck
            {
              OFFSET 5.0226 -0.0266342 0
              CHANNELS 3 Zrotation Xrotation Yrotation
              JOINT Head
              {
                OFFSET 6.69364 2.86102e-005 0
                CHANNELS 3 Zrotation Xrotation Yrotation
                End Site
                {
                  OFFSET 0 0 0
                }
              }
            }
          }
        }
      }
    }
  }
}
MOTION
Frames:	18
Frame Time:	0.0416667
-47.9582 97.2967 40.9437 -103.896 -85.3764 -103.627 -171.96 2.93492 91.8992 -7.3414 6.20908 0.133539 59.254 2.01098 7.57952 32.7055 4.84173 -14.1524 177.62 4.0155 89.0144 -11.325 4.1584 -1.36603 61.5415 -0.498337 -0.180348 32.6347 0.0422447 6.72306 -0.024723 6.99775 -90.1039 12.8783 -0.0988145 -0.195786 1.20732 -0.107347 -0.191255 -21.3277 -0.0354198 -0.216438 -1.31508 -0.0354108 -0.216438 80.2414 -51.2352 -115.053 24.7024 -12.6352 4.50616 -2.61225 -13.2997 -37.5093 -6.89789 -0.601433 4.08099 -102.527 -43.5635 57.6161 -28.2856 12.5291 1.6292 1.91061 9.57346 -29.8874 10.4723 1.3751 8.59544 10.4225 3.40854 3.75669 -5.20735 2.47409 -0.270812 
-47.9777 97.2952 40.9786 -107.394 -85.8286 -107.468 -172.059 2.61784 91.588 -6.94905 6.21148 0.098539 59.0414 1.97479 7.50556 32.7531 4.89972 -14.7638 177.311 3.61619 88.6043 -11.0565 4.08858 -1.27404 62.0926 -0.767275 -0.356571 32.5854 0.0515697 6.20535 -0.0928655 7.01437 -90.0662 12.8451 -0.216083 -0.106287 1.17417 -0.220541 -0.0966796 -21.3611 -0.174148 -0.166316 -1.3484 -0.174146 -0.166315 80.25 -51.2008 -115.053 24.7927 -12.6637 4.52466 -2.68491 -13.4708 -37.4383 -7.48247 -0.67344 4.65829 -102.631 -43.6053 57.4773 -28.2386 12.4049 1.77914 1.93634 9.30156 -30.0908 10.2017 1.38693 9.11916 9.54906 2.09155 4.69814 -4.51125 1.02393 -1.84403 
-47.9354 97.1828 41.0179 -112.716 -85.9617 -113.016 -172.109 2.78152 91.4075 -8.01273 6.13339 0.0599951 59.6656 2.1726 7.63469 32.7218 4.88996 -15.4007 177.033 2.6662 88.3577 -10.1861 3.43547 -1.23105 63.3454 -1.39277 -0.755528 31.1515 -0.093063 5.68762 -0.128581 7.05415 -90.0357 12.7656 -0.272411 -0.038964 1.09466 -0.273864 -0.0269406 -21.4407 -0.248112 -0.119034 -1.42804 -0.248108 -0.119034 80.311 -51.0971 -115.004 24.9679 -12.6718 4.50204 -2.80417 -13.6699 -37.4813 -7.36421 -0.703077 5.35712 -102.57 -43.5461 57.5428 -28.3054 12.5993 1.77461 2.09998 10.7145 -29.2041 12.1174 1.08159 4.78306 10.2047 1.54487 3.68174 -4.61349 0.681346 -0.879168 
-47.9652 97.0124 41.0558 -111.938 -85.9805 -112.275 -172.158 3.54811 91.3151 -9.5501 6.005 0.100247 60.6025 2.41474 7.71372 32.5633 4.76113 -15.6078 176.871 1.61697 88.2248 -8.42773 2.40366 -1.12117 64.7448 -2.31863 -1.32303 29.3613 -0.224702 4.51822 -0.129048 7.04685 -90.0328 12.7795 -0.271898 -0.0330689 1.10854 -0.27309 -0.0210791 -21.4268 -0.249394 -0.113258 -1.41417 -0.249389 -0.113261 80.2797 -51.1623 -115.025 24.8756 -12.6356 4.50606 -2.91672 -13.6699 -37.3553 -7.06285 -0.664649 5.06584 -102.666 -43.5879 57.4156 -28.2521 12.5486 1.85299 2.09211 10.6578 -29.171 11.8906 1.08335 4.99198 10.2417 1.53785 3.73536 -4.91369 0.663687 -0.854628 
-47.9435 96.8 40.9744 -110.863 -85.8859 -111.097 -172.201 4.50336 91.3749 -11.3797 5.96058 0.154199 61.5866 2.58202 7.85048 32.4331 4.64842 -15.5379 176.809 0.7647 88.2957 -6.95725 1.25176 -1.03029 66.4848 -3.33291 -1.9082 27.3181 -0.342003 3.3283 -0.11514 7.05418 -90.0447 12.7847 -0.249987 -0.0594833 1.11376 -0.25236 -0.0484297 -21.4215 -0.220552 -0.131869 -1.40889 -0.220555 -0.13187 80.2297 -51.209 -115.08 24.8612 -12.5875 4.68631 -2.58365 -13.7743 -37.6682 -7.51741 -0.706315 5.20152 -102.712 -43.5839 57.3446 -28.2964 12.4923 1.88416 2.14672 10.7754 -29.1587 12.0756 1.11358 5.10813 10.0674 1.41326 3.74439 -4.69126 0.544209 -0.865996 
-48.0156 96.5932 41.0768 -111.47 -85.8856 -111.867 -172.165 5.10627 91.326 -12.8462 5.79179 0.077958 62.2849 2.44714 7.52048 32.7076 4.8764 -15.3525 176.614 0.550387 88.1048 -7.22402 0.135873 -0.953641 69.2555 -4.41256 -2.44451 25.2227 -0.430527 2.23887 -0.119208 7.05194 -90.0318 12.7804 -0.251909 -0.0335741 1.10954 -0.253144 -0.0224619 -21.4258 -0.230177 -0.107734 -1.41315 -0.230181 -0.107741 80.2913 -51.1683 -115.006 24.8073 -12.6687 4.62578 -2.6279 -13.8614 -37.5317 -7.39013 -0.687812 5.03144 -102.917 -43.6886 57.0819 -28.1975 12.4529 2.05266 2.13543 10.6455 -29.2147 12.0662 1.11534 5.12795 10.0834 1.51625 3.8058 -4.90152 0.631797 -0.855995 
-47.9887 96.385 41.0594 -111.439 -85.9231 -111.759 -172.177 5.9958 91.4407 -14.5191 5.95461 0.0581474 62.956 2.50232 7.74841 33.1128 5.23726 -16.051 176.47 0.496729 88.0524 -7.47229 -0.836746 -0.777367 71.6995 -5.41223 -2.89224 23.0729 -0.507915 1.37272 -0.12451 7.04794 -90.0311 12.785 -0.262119 -0.0309398 1.11409 -0.263224 -0.0193799 -21.4212 -0.240705 -0.108286 -1.4086 -0.240704 -0.108286 80.1883 -51.2446 -115.127 24.8793 -12.5601 4.64351 -2.80074 -13.8854 -37.4952 -7.33163 -0.694898 5.24104 -102.792 -43.6702 57.263 -28.1386 12.5428 2.05716 2.12426 10.7295 -29.2143 11.9273 1.10699 5.15445 10.0042 1.46406 3.4911 -4.90095 0.651424 -0.620231 
-48.0149 96.2227 41.0673 -111.702 -86.012 -112.055 -172.187 6.6607 91.4378 -15.8689 5.61401 0.0670421 63.5691 2.23645 7.12122 33.5402 5.59469 -15.9623 176.461 0.384888 88.0225 -7.58748 -1.44362 -0.780614 73.7043 -6.23222 -3.21984 21.5706 -0.503779 0.455042 -0.132756 7.04628 -90.0343 12.781 -0.279938 -0.0350975 1.11012 -0.281216 -0.0227511 -21.4253 -0.256458 -0.117615 -1.41261 -0.256452 -0.117611 80.1874 -51.3443 -115.09 24.6279 -12.6169 4.5289 -2.50424 -13.8547 -37.362 -7.45747 -0.700638 5.17751 -102.894 -43.7208 57.1316 -28.1554 12.4465 1.99449 2.16464 10.8442 -29.1066 12.2452 1.1427 5.22322 9.79641 1.41626 3.68976 -4.67578 0.569429 -0.944933 
-48.0229 96.093 41.0703 -112.751 -85.8711 -113.152 -172.189 6.9576 91.4046 -16.7071 5.8854 0.0322705 64.086 2.75765 8.18321 32.4543 4.70815 -16.8962 176.226 0.262628 87.8484 -7.78047 -2.31549 -0.625107 75.2183 -6.9083 -3.47787 20.0778 -0.518053 -0.153179 -0.122612 7.06331 -90.0336 12.7472 -0.259548 -0.0363815 1.0763 -0.260897 -0.0249254 -21.459 -0.236625 -0.112702 -1.44638 -0.236623 -0.112709 80.1007 -51.2816 -115.24 24.7425 -12.4173 4.65222 -3.1445 -13.6614 -37.4241 -6.97227 -0.66729 5.25065 -102.953 -43.8123 57.0833 -28.0896 12.5021 2.00748 2.13301 10.7187 -29.249 12.463 1.18179 5.37933 9.77605 1.31794 3.62359 -4.58648 0.488552 -0.991883 
-48.0419 96.0087 41.0972 -112.505 -86.0685 -112.959 -172.195 7.28473 91.3841 -17.2171 5.9401 -0.00340141 64.4515 2.86607 8.05161 32.8291 5.02838 -17.2693 176.298 0.254815 87.8505 -7.78685 -2.33673 -0.692612 76.0508 -7.24574 -3.59103 19.5886 -0.504554 -0.455974 -0.136489 7.05827 -90.0343 12.7584 -0.287378 -0.0343585 1.08744 -0.288615 -0.0216829 -21.4479 -0.263774 -0.119138 -1.43528 -0.263771 -0.119143 80.2315 -51.2013 -115.08 24.7137 -12.5203 4.48312 -2.46541 -13.4115 -37.2606 -7.6149 -0.712878 5.20684 -103.014 -43.775 56.974 -28.1312 12.4478 2.00241 2.20529 10.742 -29.3618 12.4212 1.18689 5.4461 9.83306 1.3903 3.49495 -4.73171 0.585611 -0.827107 
-48.0591 96.0032 41.1037 -112.798 -85.9988 -113.27 -172.212 7.24568 91.3667 -17.2613 5.88861 0.0259045 64.5377 2.86515 7.87798 32.2501 4.51962 -16.3317 176.257 0.212493 87.8202 -7.79832 -2.46507 -0.674471 76.1365 -7.28332 -3.60452 19.288 -0.546975 -0.285698 -0.135326 7.06618 -90.0359 12.7453 -0.28592 -0.0378097 1.07438 -0.287304 -0.0251896 -21.461 -0.261341 -0.12199 -1.44834 -0.261338 -0.121992 80.24 -51.1454 -115.089 24.7558 -12.5193 4.48986 -2.67217 -13.5016 -37.3863 -7.44 -0.717152 5.52206 -103.007 -43.8549 57.022 -28.1561 12.297 1.88393 2.21828 10.7696 -29.1502 12.5546 1.16204 5.16971 9.76158 1.30329 3.42584 -4.72056 0.516151 -0.658459 
-48.065 96.0929 41.1191 -112.927 -86.0714 -113.489 -172.247 6.95984 91.2731 -16.6527 5.79274 0.0419401 64.0996 2.70197 7.85271 32.9623 5.13662 -17.1945 176.203 0.251202 87.7433 -7.72835 -2.15607 -0.668834 75.3003 -6.91616 -3.47526 20.1883 -0.498767 -0.249271 -0.134762 7.06308 -90.0247 12.7476 -0.27937 -0.0161451 1.07668 -0.279807 -0.00383503 -21.4587 -0.261598 -0.0993574 -1.44604 -0.26161 -0.099369 80.3826 -51.1895 -114.864 24.8613 -12.5225 4.40736 -2.5538 -13.6332 -37.2585 -7.53798 -0.734484 5.69307 -102.962 -43.7834 57.0567 -28.2253 12.3012 1.79355 2.13568 10.5789 -29.1082 12.8007 1.21302 5.39361 9.80941 1.30438 3.32389 -4.99489 0.540915 -0.712483 
-48.0708 96.2738 41.1527 -113.619 -85.9506 -114.127 -172.164 6.20608 91.337 -15.3489 6.01746 -0.000352375 63.5438 2.7993 8.08736 32.1973 4.48078 -16.4828 176.371 0.207933 87.8955 -7.54416 -1.34015 -0.814373 73.2163 -6.02613 -3.13866 21.9001 -0.509219 0.675816 -0.121113 7.07315 -90.0352 12.7275 -0.257331 -0.0399581 1.05661 -0.258838 -0.0286059 -21.4787 -0.233432 -0.115447 -1.46608 -0.23343 -0.115459 80.3314 -51.2553 -114.914 24.7617 -12.4707 4.46011 -2.89412 -13.738 -37.4134 -7.38177 -0.726453 5.7663 -103.101 -43.8242 56.8653 -28.1721 12.2724 1.81322 2.15657 10.5839 -29.1595 12.5727 1.17987 5.29289 9.88819 1.32169 3.29317 -5.02005 0.560753 -0.593368 
-48.0515 96.6032 41.1631 -113.502 -86.0687 -114.042 -172.182 5.11265 91.2823 -12.9335 6.0778 0.0103631 62.2415 2.60051 8.00832 32.7868 4.98649 -16.9876 176.476 0.35086 87.9965 -7.04875 0.204947 -0.915368 69.3046 -4.45441 -2.46152 25.1133 -0.442801 2.2861 -0.125319 7.07247 -90.0397 12.7289 -0.267789 -0.0475129 1.05798 -0.269619 -0.0356893 -21.4774 -0.244308 -0.125802 -1.46471 -0.244302 -0.125805 80.5184 -51.0869 -114.705 25.0288 -12.5384 4.43084 -3.18382 -14.373 -37.445 -7.59141 -0.729053 5.45804 -103.208 -43.8078 56.6964 -28.1958 12.1817 1.77402 2.20666 10.6428 -29.0601 12.5001 1.16351 5.21512 10.0305 1.35175 3.2989 -5.22806 0.584115 -0.504966 
-48.0572 97.1252 41.2199 -112.775 -86.0749 -113.23 -172.121 2.98193 91.4465 -8.51205 6.27291 0.0195882 59.9709 2.37576 8.11958 32.2281 4.50856 -16.5399 176.852 1.8543 87.7758 -9.19359 2.99172 -1.14117 63.8436 -1.78442 -0.989382 30.4901 -0.130532 5.21887 -0.120772 7.06205 -90.0423 12.7499 -0.260017 -0.0536804 1.07895 -0.262125 -0.0421898 -21.4564 -0.247345 -0.12935 -1.44377 -0.247342 -0.129349 80.373 -51.2213 -114.866 24.9576 -13.2034 4.46378 -4.24533 -15.5464 -37.4037 -8.79075 -0.833399 5.53869 -103.157 -43.7676 56.7553 -28.2263 12.1965 1.79311 2.25169 10.7491 -29.136 12.7373 1.22839 5.55038 9.99554 1.44902 3.06548 -5.29305 0.729989 -0.307349 
-48.0739 97.3138 41.2457 -112.906 -86.145 -113.335 -172.072 2.04104 91.3903 -6.44785 6.21648 0.0217884 58.8327 2.12634 7.96291 33.2576 5.38322 -17.424 177.231 5.37061 88.3573 -14.9173 5.98196 -1.34312 61.0263 0.597025 0.541333 34.5454 0.255077 8.55317 -0.126103 7.06114 -90.0417 12.7501 -0.270335 -0.0512544 1.07918 -0.27233 -0.0393096 -21.4562 -0.244307 -0.130139 -1.44355 -0.244306 -0.130133 80.3174 -51.1501 -114.975 25.1195 -13.2102 4.52403 -3.81231 -15.5438 -37.198 -9.00075 -0.8232 5.1435 -103.115 -43.7017 56.7876 -28.2766 12.1137 1.81384 2.1849 10.5227 -29.1295 12.9594 1.2587 5.62896 9.84944 1.37309 3.06993 -5.02766 0.659398 -0.401643 
-48.0699 97.326 41.2894 -112.565 -86.1265 -112.996 -172.077 2.02152 91.3935 -6.61097 6.8046 -0.029204 59.3009 2.61779 8.05038 31.5465 3.88857 -15.4082 176.835 5.1037 88.2083 -14.3781 7.26673 -0.833814 62.0446 0.125888 0.219729 32.3976 -0.137392 11.5327 -0.119478 7.05821 -90.0436 12.7538 -0.258111 -0.0565851 1.08288 -0.260354 -0.045182 -21.4524 -0.229187 -0.131549 -1.4398 -0.229172 -0.131543 80.4589 -51.2224 -114.74 24.9882 -12.7283 4.37974 -3.46056 -14.0144 -37.2303 -7.60623 -0.711919 5.13056 -103.271 -43.7891 56.593 -28.1136 12.1241 1.8361 2.15363 10.4979 -29.1018 12.8744 1.23793 5.531 9.86152 1.33694 3.57524 -5.22223 0.516695 -0.746055 
-48.0617 97.2992 41.2961 -111.446 -86.1243 -111.967 -172.146 2.09522 91.2779 -6.52938 6.06458 0.0566132 58.9842 2.16044 7.82361 32.9852 5.15636 -17.2488 176.921 4.35111 88.2002 -13.0526 6.44285 -1.04054 63.1575 -0.532216 -0.201992 30.6522 -0.3661 10.3524 -0.12099 7.05501 -90.035 12.7641 -0.256998 -0.0393423 1.09323 -0.25848 -0.027998 -21.4421 -0.233294 -0.114759 -1.42945 -0.233294 -0.114761 80.4382 -51.2077 -114.776 24.9262 -12.9111 4.34688 -2.66967 -13.7571 -37.1979 -8.21458 -0.793108 5.73448 -103.238 -43.8653 56.6783 -28.1063 12.1332 1.8148 2.14207 10.4961 -29.1024 13.16 1.27638 5.62755 9.95337 1.40183 3.64547 -5.30058 0.563418 -0.83605 
